<?xml version="1.0" encoding="utf-8"?>
<!-- Generator: Adobe Illustrator 25.1.0, SVG Export Plug-In . SVG Version: 6.00 Build 0)  -->
<svg version="1.1" id="Ebene_1" xmlns="http://www.w3.org/2000/svg" xmlns:xlink="http://www.w3.org/1999/xlink" x="0px" y="0px"
	 viewBox="0 0 172 40" style="enable-background:new 0 0 172 40;" xml:space="preserve">
<style type="text/css">
	.st0{fill:#426462;}
</style>
<g id="z">
	<g id="Quast_Startseite_03-Alternative2" transform="translate(-130.000000, -43.000000)">
		<path id="Quartier-Quast-Logo-Horizontal" class="st0" d="M149.5,43c10.8,0,19.5,8.5,19.5,19s-8.7,19-19.5,19S130,72.5,130,62
			S138.7,43,149.5,43z M149.5,51.1c-6.2,0-11.2,4.9-11.2,10.9c0,6,5,10.9,11.2,10.9c1.5,0,2.9-0.3,4.2-0.8l0,0l-5.8-6.5l7.2,0
			l3.1,3.1c1.5-1.9,2.4-4.2,2.4-6.8C160.7,56,155.7,51.1,149.5,51.1z M185.3,57c3.1,0,5.3,2.1,5.3,4.9c0,1.8-0.8,2.8-1.3,3.3
			l1.7,1.7l-2.1,0.1l-0.8-0.8c-0.9,0.5-1.7,0.7-2.8,0.7c-3.1,0-5.3-2-5.3-4.9C180,59.1,182.2,57,185.3,57z M198.7,57v6.1
			c0,0.7,0.2,1.2,0.4,1.5c0.2,0.3,0.7,0.7,1.4,0.7c0.7,0,1.1-0.3,1.4-0.7c0.2-0.2,0.4-0.7,0.4-1.5V57h1.7v6c0,0.9-0.1,1.9-0.7,2.6
			c-0.6,0.9-1.7,1.4-2.8,1.4c-1.1,0-2.2-0.5-2.8-1.4c-0.5-0.7-0.7-1.7-0.7-2.6v-6H198.7z M213.8,57l4.2,10h-2.1l-0.9-2.1h-4
			l-0.9,2.1H208l4.3-10H213.8z M225.8,57c1.3,0,2,0.4,2.4,0.7c0.7,0.6,1,1.5,1,2.2c0,1-0.4,1.8-1.1,2.4c-0.2,0.2-0.6,0.3-1.1,0.4
			l3,4.2h-2.3l-2.6-4h-0.2v4H223V57H225.8z M242,57v1.7h-2.6V67h-1.7v-8.3H235V57H242z M250,57v10h-2V57H250z M262,57v1.7h-3.9v2.2
			h3.7v1.7h-3.7v2.7h3.9V67h-6V57H262z M271.8,57c1.3,0,2,0.4,2.4,0.7c0.7,0.6,1,1.5,1,2.2c0,1-0.4,1.8-1.1,2.4
			c-0.2,0.2-0.6,0.3-1.1,0.4l3,4.2h-2.3l-2.6-4h-0.2v4H269V57H271.8z M294.3,57c3.1,0,5.3,2.1,5.3,4.9c0,1.8-0.8,2.8-1.3,3.3
			l1.7,1.7l-2.1,0.1l-0.8-0.8c-0.9,0.5-1.7,0.7-2.8,0.7c-3.1,0-5.3-2-5.3-4.9C289,59.1,291.2,57,294.3,57z M185.3,58.7
			c-1.9,0-3.3,1.4-3.3,3.3c0,1.9,1.3,3.2,3.3,3.2c0.7,0,1.1-0.1,1.5-0.3l-2-1.9l2.1,0l1,1c0.3-0.4,0.7-1,0.7-2
			C188.6,60,187.2,58.7,185.3,58.7z M294.3,58.7c-1.9,0-3.3,1.4-3.3,3.3c0,1.9,1.3,3.2,3.3,3.2c0.7,0,1.1-0.1,1.5-0.3l-2-1.9l2.1,0
			l1,1c0.3-0.4,0.7-1,0.7-2C297.6,60,296.2,58.7,294.3,58.7z M213,59.7l-1.4,3.6h2.8L213,59.7z M225.5,58.6l-0.6,0v3h0.5
			c0.4,0,1.8,0,1.8-1.5C227.2,58.7,225.9,58.6,225.5,58.6z M271.5,58.6l-0.6,0v3h0.5c0.4,0,1.8,0,1.8-1.5
			C273.2,58.7,271.9,58.6,271.5,58.6z"/>
	</g>
</g>
</svg>
