<?xml version="1.0" encoding="utf-8"?>
<!-- Generator: Adobe Illustrator 25.1.0, SVG Export Plug-In . SVG Version: 6.00 Build 0)  -->
<svg version="1.1" id="Ebene_1" xmlns="http://www.w3.org/2000/svg" xmlns:xlink="http://www.w3.org/1999/xlink" x="0px" y="0px"
	 viewBox="0 0 174 107" style="enable-background:new 0 0 174 107;" xml:space="preserve">
<style type="text/css">
	.st0{fill-rule:evenodd;clip-rule:evenodd;fill:#FEFEFE;}
</style>
<g id="z">
	<g id="Quast_Startseite_03-Alternative2" transform="translate(-134.000000, -3988.000000)">
		<g id="footer" transform="translate(0.000000, 3949.000000)">
			<path id="logo_footer" class="st0" d="M202.3,145.4h2.2v-9.9h-2.2V145.4z M189.1,137.2h2.9v8.3h1.9v-8.3h2.9v-1.7h-7.7V137.2z
				 M226.4,139.9H226v-2.8h0.5c0.3,0,1.7,0,1.7,1.4C228.2,139.9,226.8,139.9,226.4,139.9L226.4,139.9z M228.9,140.8
				c0.8-0.5,1.1-1.4,1.1-2.3c0-0.7-0.2-1.6-1-2.2c-0.5-0.4-1.1-0.7-2.5-0.7h-2.8v9.9h1.9v-4h0.2l2.6,4h2.4l-3.1-4.2
				C228.3,141.2,228.7,141,228.9,140.8L228.9,140.8z M179.6,139.9h-0.5v-2.8h0.5c0.3,0,1.7,0,1.7,1.4
				C181.4,139.9,180,139.9,179.6,139.9L179.6,139.9z M182.7,140.8c0.8-0.5,1.1-1.4,1.1-2.3c0-0.7-0.2-1.6-1-2.2
				c-0.5-0.4-1.1-0.7-2.5-0.7h-2.8v9.9h1.9v-4h0.2l2.6,4h2.4l-3.1-4.2C182.1,141.2,182.4,141,182.7,140.8L182.7,140.8z M211.6,145.4
				h5.5v-1.7h-3.6v-2.7h3.4v-1.7h-3.4v-2.2h3.6v-1.7h-5.5V145.4z M155.8,141.6c0,0.7-0.2,1.2-0.5,1.4c-0.3,0.3-0.8,0.7-1.5,0.7
				c-0.7,0-1.3-0.3-1.5-0.7c-0.2-0.2-0.5-0.7-0.5-1.4v-6.1H150v5.9c0,0.9,0.1,1.8,0.7,2.6c0.7,0.9,1.9,1.4,3.1,1.4
				c1.2,0,2.4-0.5,3.1-1.4c0.6-0.7,0.7-1.7,0.7-2.6v-5.9h-1.9V141.6z M142.2,142.6l-1-1l-2.1,0l2,1.9c-0.4,0.2-0.8,0.3-1.5,0.3
				c-2,0-3.3-1.4-3.3-3.3c0-1.9,1.4-3.3,3.3-3.3c1.9,0,3.3,1.4,3.3,3.3C142.8,141.6,142.5,142.2,142.2,142.6L142.2,142.6z
				 M144.6,140.7c0-3-2.2-5.2-5.3-5.2s-5.3,2.2-5.3,5.2c0,3,2.2,5.2,5.3,5.2c1.1,0,1.9-0.2,2.8-0.7l0.8,0.9l2.1-0.1l-1.7-1.8
				C143.8,143.6,144.6,142.5,144.6,140.7L144.6,140.7z M165.9,141.6l1.4-3.3l1.4,3.3H165.9z M166.3,135.5l-4.3,9.9h2.1l0.9-2.1h4
				l0.9,2.1h2.1l-4.1-9.9H166.3z M252.8,142.6l-1-1l-2.1,0l2,1.9c-0.4,0.2-0.8,0.3-1.5,0.3c-2,0-3.3-1.4-3.3-3.3
				c0-1.9,1.4-3.3,3.3-3.3c1.9,0,3.3,1.4,3.3,3.3C253.5,141.6,253.1,142.2,252.8,142.6L252.8,142.6z M255.8,140.7
				c0-3-2.2-5.2-5.3-5.2c-3.1,0-5.3,2.2-5.3,5.2c0,3,2.2,5.2,5.3,5.2c1.1,0,1.9-0.2,2.8-0.7l0.8,0.9l2.1-0.1l-1.7-1.8
				C255,143.6,255.8,142.5,255.8,140.7L255.8,140.7z M239.2,93.6l-6.5-6.6l-14.9,0l11.9,13.7c-2.7,1.1-5.6,1.7-8.7,1.7
				c-12.8,0-23.1-10.4-23.1-23.2s10.4-23.2,23.1-23.2s23.1,10.4,23.1,23.2C244.1,84.7,242.3,89.6,239.2,93.6L239.2,93.6z
				 M261.2,79.5c0-22.4-18.1-40.5-40.5-40.5s-40.5,18.1-40.5,40.5s18.1,40.5,40.5,40.5S261.2,101.9,261.2,79.5L261.2,79.5z"/>
		</g>
	</g>
</g>
</svg>
