<?xml version="1.0" encoding="UTF-8"?>
<svg width="1200px" height="1004px" viewBox="0 0 1200 1004" version="1.1" xmlns="http://www.w3.org/2000/svg" xmlns:xlink="http://www.w3.org/1999/xlink">
    <title>6A797328-B7E9-4D21-8767-11F37841B550</title>
    <g id="z" stroke="none" stroke-width="1" fill="none" fill-rule="evenodd" opacity="0.91">
        <g id="Quast_Startseite_03-Alternative2" transform="translate(0.000000, -105.000000)" fill="#d38561">
            <path d="M471.997116,358.000089 C471.997116,623.638211 687.346942,838.981757 952.994378,838.981757 C1066.45959,838.981757 1170.74864,799.694995 1253,733.98277 L1252.99274,1109 L-43,1109 L-43,105.006965 L543.835596,105.004051 C498.290491,178.500961 471.997116,265.180144 471.997116,358.000089 Z M1231.99286,359.000073 C1231.99286,423.802622 1209.7574,483.374545 1172.58301,530.646084 L1094.75662,451.319164 L915.462211,451.593168 L1058.52032,616.596538 C1026.24346,629.705901 990.978172,636.989437 953.994416,636.989437 C800.460022,636.989437 675.995973,512.529032 675.995973,359.000073 C675.995973,245.760103 743.706599,148.335014 840.850748,105 L1067.1379,105 C1164.28199,148.335014 1231.99286,245.760103 1231.99286,359.000073 Z" id="Q-flaeche-Desktop"></path>
        </g>
    </g>
</svg>