<svg xmlns="http://www.w3.org/2000/svg" viewBox="0 0 174 107"><path d="M68.3 106.4h2.2v-9.9h-2.2v9.9zm-13.2-8.2H58v8.3h1.9v-8.3h2.9v-1.7h-7.7v1.7zm37.3 2.7H92v-2.8h.5c.3 0 1.7 0 1.7 1.4s-1.4 1.4-1.8 1.4zm2.5.9c.8-.5 1.1-1.4 1.1-2.3 0-.7-.2-1.6-1-2.2-.5-.4-1.1-.7-2.5-.7h-2.8v9.9h1.9v-4h.2l2.6 4h2.4l-3.1-4.2c.6-.1 1-.3 1.2-.5zm-49.3-.9h-.5v-2.8h.5c.3 0 1.7 0 1.7 1.4.1 1.4-1.3 1.4-1.7 1.4zm3.1.9c.8-.5 1.1-1.4 1.1-2.3 0-.7-.2-1.6-1-2.2-.5-.4-1.1-.7-2.5-.7h-2.8v9.9h1.9v-4h.2l2.6 4h2.4l-3.1-4.2c.6-.1.9-.3 1.2-.5zm28.9 4.6h5.5v-1.7h-3.6V102h3.4v-1.7h-3.4v-2.2h3.6v-1.7h-5.5v10zm-55.8-3.8c0 .7-.2 1.2-.5 1.4-.3.3-.8.7-1.5.7s-1.3-.3-1.5-.7c-.2-.2-.5-.7-.5-1.4v-6.1H16v5.9c0 .9.1 1.8.7 2.6.7.9 1.9 1.4 3.1 1.4 1.2 0 2.4-.5 3.1-1.4.6-.7.7-1.7.7-2.6v-5.9h-1.9v6.1zm-13.6 1l-1-1H5.1l2 1.9c-.4.2-.8.3-1.5.3-2 0-3.3-1.4-3.3-3.3s1.4-3.3 3.3-3.3 3.3 1.4 3.3 3.3c-.1 1.1-.4 1.7-.7 2.1zm2.4-1.9c0-3-2.2-5.2-5.3-5.2S0 98.7 0 101.7s2.2 5.2 5.3 5.2c1.1 0 1.9-.2 2.8-.7l.8.9 2.1-.1-1.7-1.8c.5-.6 1.3-1.7 1.3-3.5zm21.3.9l1.4-3.3 1.4 3.3h-2.8zm.4-6.1l-4.3 9.9h2.1l.9-2.1h4l.9 2.1H38l-4.1-9.9h-1.6zm86.5 7.1l-1-1h-2.1l2 1.9c-.4.2-.8.3-1.5.3-2 0-3.3-1.4-3.3-3.3s1.4-3.3 3.3-3.3 3.3 1.4 3.3 3.3c0 1.1-.4 1.7-.7 2.1zm3-1.9c0-3-2.2-5.2-5.3-5.2-3.1 0-5.3 2.2-5.3 5.2s2.2 5.2 5.3 5.2c1.1 0 1.9-.2 2.8-.7l.8.9 2.1-.1-1.7-1.8c.5-.6 1.3-1.7 1.3-3.5zm-16.6-47.1L98.7 48H83.8l11.9 13.7c-2.7 1.1-5.6 1.7-8.7 1.7-12.8 0-23.1-10.4-23.1-23.2S74.3 17 87 17s23.1 10.4 23.1 23.2c0 5.5-1.8 10.4-4.9 14.4zm22-14.1C127.2 18.1 109.1 0 86.7 0S46.2 18.1 46.2 40.5 64.3 81 86.7 81s40.5-18.1 40.5-40.5z" fill-rule="evenodd" clip-rule="evenodd" fill="#fefefe"/></svg>