<svg width="1200" height="1004" xmlns="http://www.w3.org/2000/svg"><path d="M471.997 253c0 265.638 215.35 480.982 480.997 480.982 113.466 0 217.755-39.287 300.006-105l-.007 375.018H-43V.007L543.836.004C498.29 73.501 471.997 160.18 471.997 253zm759.996 1c0 64.803-22.236 124.375-59.41 171.646l-77.826-79.327-179.295.274 143.058 165.004c-32.277 13.109-67.542 20.392-104.526 20.392-153.534 0-277.998-124.46-277.998-277.989 0-113.24 67.71-210.665 164.855-254h226.287c97.144 43.335 164.855 140.76 164.855 254z" fill="#2B4947" fill-rule="evenodd" opacity=".91"/></svg>