<svg xmlns="http://www.w3.org/2000/svg" viewBox="0 0 221 38"><path d="M19.5 0C30.3 0 39 8.5 39 19s-8.7 19-19.5 19S0 29.5 0 19 8.7 0 19.5 0zm0 8.1C13.3 8.1 8.3 13 8.3 19s5 10.9 11.2 10.9c1.5 0 2.9-.3 4.2-.8l-5.8-6.5h7.2l3.1 3.1c1.5-1.9 2.4-4.2 2.4-6.8.1-5.9-4.9-10.8-11.1-10.8zM55.3 14c3.1 0 5.3 2.1 5.3 4.9 0 1.8-.8 2.8-1.3 3.3l1.7 1.7-2.1.1-.8-.8c-.9.5-1.7.7-2.8.7-3.1 0-5.3-2-5.3-4.9 0-2.9 2.2-5 5.3-5zm13.4 0v6.1c0 .7.2 1.2.4 1.5.2.3.7.7 1.4.7s1.1-.3 1.4-.7c.2-.2.4-.7.4-1.5V14H74v6c0 .9-.1 1.9-.7 2.6-.6.9-1.7 1.4-2.8 1.4-1.1 0-2.2-.5-2.8-1.4-.5-.7-.7-1.7-.7-2.6v-6h1.7zm15.1 0L88 24h-2.1l-.9-2.1h-4l-.9 2.1H78l4.3-10h1.5zm12 0c1.3 0 2 .4 2.4.7.7.6 1 1.5 1 2.2 0 1-.4 1.8-1.1 2.4-.2.2-.6.3-1.1.4l3 4.2h-2.3l-2.6-4h-.2v4H93V14h2.8zm16.2 0v1.7h-2.6V24h-1.7v-8.3H105V14h7zm8 0v10h-2V14h2zm12 0v1.7h-3.9v2.2h3.7v1.7h-3.7v2.7h3.9V24h-6V14h6zm9.8 0c1.3 0 2 .4 2.4.7.7.6 1 1.5 1 2.2 0 1-.4 1.8-1.1 2.4-.2.2-.6.3-1.1.4l3 4.2h-2.3l-2.6-4h-.2v4H139V14h2.8zm22.5 0c3.1 0 5.3 2.1 5.3 4.9 0 1.8-.8 2.8-1.3 3.3l1.7 1.7-2.1.1-.8-.8c-.9.5-1.7.7-2.8.7-3.1 0-5.3-2-5.3-4.9 0-2.9 2.2-5 5.3-5zm-109 1.7c-1.9 0-3.3 1.4-3.3 3.3s1.3 3.2 3.3 3.2c.7 0 1.1-.1 1.5-.3l-2-1.9h2.1l1 1c.3-.4.7-1 .7-2 0-2-1.4-3.3-3.3-3.3zm109 0c-1.9 0-3.3 1.4-3.3 3.3s1.3 3.2 3.3 3.2c.7 0 1.1-.1 1.5-.3l-2-1.9h2.1l1 1c.3-.4.7-1 .7-2 0-2-1.4-3.3-3.3-3.3zm-81.3 1l-1.4 3.6h2.8L83 16.7zm12.5-1.1h-.6v3h.5c.4 0 1.8 0 1.8-1.5 0-1.4-1.3-1.5-1.7-1.5zm46 0h-.6v3h.5c.4 0 1.8 0 1.8-1.5 0-1.4-1.3-1.5-1.7-1.5z" fill="#426462"/></svg>